<svg width="20" height="20" viewBox="0 0 20 20" fill="none" xmlns="http://www.w3.org/2000/svg">
<path d="M15.112 3.52954C14.4697 3.52954 13.9559 4.04891 13.9559 4.68556C13.9559 5.32779 14.4753 5.84158 15.112 5.84158C15.7542 5.84158 16.268 5.3222 16.268 4.68556C16.2736 4.04891 15.7542 3.52954 15.112 3.52954Z" fill="url(#paint0_linear_4_391)"/>
<path d="M9.96293 5.01489C7.28231 5.01489 5.09873 7.19848 5.09873 9.8791C5.09873 12.5597 7.28231 14.7433 9.96293 14.7433C12.6435 14.7433 14.8271 12.5597 14.8271 9.8791C14.8271 7.19848 12.6435 5.01489 9.96293 5.01489ZM9.96293 13.0009C8.24287 13.0009 6.84671 11.6047 6.84671 9.88468C6.84671 8.16462 8.24287 6.76846 9.96293 6.76846C11.683 6.76846 13.0791 8.16462 13.0791 9.88468C13.0791 11.5992 11.683 13.0009 9.96293 13.0009Z" fill="url(#paint1_linear_4_391)"/>
<path d="M13.8275 19.764H5.93645C2.66386 19.764 0 17.1001 0 13.8275V5.93645C0 2.66386 2.66386 0 5.93645 0H13.8275C17.1001 0 19.764 2.66386 19.764 5.93645V13.8275C19.7584 17.1001 17.1001 19.764 13.8275 19.764ZM5.93645 1.85968C3.69143 1.85968 1.85968 3.68585 1.85968 5.93645V13.8275C1.85968 16.0725 3.68585 17.9043 5.93645 17.9043H13.8275C16.0781 17.9043 17.9043 16.0781 17.9043 13.8275V5.93645C17.9043 3.69143 16.0781 1.85968 13.8275 1.85968H5.93645Z" fill="url(#paint2_linear_4_391)"/>
<defs>
<linearGradient id="paint0_linear_4_391" x1="6.06063" y1="-3.97524" x2="23.9807" y2="13.1772" gradientUnits="userSpaceOnUse">
<stop offset="0.0011048" stop-color="#FBE18A"/>
<stop offset="0.2094" stop-color="#FCBB45"/>
<stop offset="0.3765" stop-color="#F75274"/>
<stop offset="0.5238" stop-color="#D53692"/>
<stop offset="0.7394" stop-color="#8F39CE"/>
<stop offset="1" stop-color="#5B4FE9"/>
</linearGradient>
<linearGradient id="paint1_linear_4_391" x1="1.0042" y1="1.30732" x2="18.9242" y2="18.4598" gradientUnits="userSpaceOnUse">
<stop offset="0.0011048" stop-color="#FBE18A"/>
<stop offset="0.2094" stop-color="#FCBB45"/>
<stop offset="0.3765" stop-color="#F75274"/>
<stop offset="0.5238" stop-color="#D53692"/>
<stop offset="0.7394" stop-color="#8F39CE"/>
<stop offset="1" stop-color="#5B4FE9"/>
</linearGradient>
<linearGradient id="paint2_linear_4_391" x1="0.965413" y1="1.34802" x2="18.8853" y2="18.5003" gradientUnits="userSpaceOnUse">
<stop offset="0.0011048" stop-color="#FBE18A"/>
<stop offset="0.2094" stop-color="#FCBB45"/>
<stop offset="0.3765" stop-color="#F75274"/>
<stop offset="0.5238" stop-color="#D53692"/>
<stop offset="0.7394" stop-color="#8F39CE"/>
<stop offset="1" stop-color="#5B4FE9"/>
</linearGradient>
</defs>
</svg>
