<svg width="24" height="20" viewBox="0 0 24 20" fill="none" xmlns="http://www.w3.org/2000/svg">
<path d="M23.9063 2.37155C23.1412 2.7178 22.3035 2.92443 21.477 3.06405C21.8679 2.99703 22.4432 2.29337 22.6721 2.00297C23.024 1.56737 23.3144 1.07034 23.4763 0.534214C23.4986 0.489537 23.5154 0.439278 23.4707 0.40577C23.4205 0.383431 23.3814 0.394599 23.3423 0.416937C22.4264 0.908384 21.477 1.2658 20.4606 1.51711C20.3768 1.53945 20.3154 1.51711 20.2596 1.46684C20.1758 1.37191 20.0976 1.28255 20.0083 1.20995C19.5838 0.846952 19.1259 0.562137 18.6121 0.355506C17.9364 0.0818597 17.1992 -0.0354188 16.4732 0.00925814C15.7639 0.0539351 15.0715 0.254985 14.446 0.584477C13.8149 0.91397 13.2565 1.37191 12.8097 1.9192C12.3462 2.48883 12.0055 3.16457 11.8324 3.8794C11.6648 4.56631 11.676 5.24763 11.7821 5.94571C11.7989 6.06299 11.7877 6.07416 11.6816 6.06299C7.72768 5.4766 4.44951 4.05811 1.79123 1.03124C1.67395 0.897214 1.61252 0.897216 1.51758 1.04242C0.355984 2.78482 0.92003 5.5883 2.37203 6.9677C2.56749 7.15199 2.76295 7.33628 2.98075 7.50382C2.90257 7.52057 1.93643 7.41447 1.07081 6.9677C0.953538 6.8951 0.897692 6.93419 0.886522 7.06822C0.875353 7.25809 0.892107 7.43122 0.92003 7.63226C1.14341 9.40259 2.36645 11.0389 4.04742 11.6755C4.24846 11.7593 4.46626 11.8319 4.68406 11.871C4.30431 11.9548 3.9078 12.0162 2.81322 11.9268C2.67919 11.8989 2.62334 11.9715 2.67919 12.1C3.50012 14.345 5.28162 15.0151 6.61076 15.3949C6.78946 15.4284 6.96817 15.4284 7.14688 15.4675C7.13571 15.4842 7.12454 15.4842 7.11337 15.501C6.67219 16.1767 5.142 16.6738 4.42717 16.9251C3.13154 17.3774 1.71863 17.5841 0.350399 17.45C0.132599 17.4165 0.0823374 17.4221 0.0264912 17.45C-0.0349396 17.4891 0.0209066 17.5394 0.087922 17.5952C0.367153 17.7795 0.646384 17.9415 0.936784 18.0978C1.80798 18.5614 2.71269 18.9244 3.66208 19.1868C8.56537 20.5383 14.083 19.5443 17.7632 15.8919C20.6505 13.0214 21.6669 9.06193 21.6669 5.09685C21.6669 4.94048 21.8512 4.85671 21.9573 4.77294C22.7112 4.2089 23.3144 3.53316 23.8784 2.77923C24.0068 2.61169 24.0068 2.46091 24.0068 2.39948C24.0068 2.38831 24.0068 2.37714 24.0068 2.37714C24.0068 2.31012 24.0068 2.32688 23.9063 2.37155Z" fill="#33CCFF"/>
</svg>
